REM DIRINDEX 1\2,1\3,1\4,1\5
REM DIRNAME "folder01","folder02","folder03","folder04","folder05"
TITLE ""
FILE "P1Q_t_0649-0658.mp3" MP3
  TRACK 01 AUDIO
    TITLE "3:cjc173_2884"
    INDEX 01 00:00:00
  TRACK 02 AUDIO
    TITLE "0:"
    INDEX 01 00:01:16
  TRACK 03 AUDIO
    TITLE "4:cjc173_2885"
    INDEX 01 00:01:37
  TRACK 04 AUDIO
    TITLE "0:"
    INDEX 01 00:03:22
  TRACK 05 AUDIO
    TITLE "5:cjc173_2886"
    INDEX 01 00:03:42
  TRACK 06 AUDIO
    TITLE "0:"
    INDEX 01 00:08:25
  TRACK 07 AUDIO
    TITLE "3:cjc173_2887"
    INDEX 01 00:08:73
  TRACK 08 AUDIO
    TITLE "0:"
    INDEX 01 00:10:07
  TRACK 09 AUDIO
    TITLE "4:cjc173_2888"
    INDEX 01 00:10:30
  TRACK 10 AUDIO
    TITLE "0:"
    INDEX 01 00:12:19
  TRACK 11 AUDIO
    TITLE "5:cjc173_2889"
    INDEX 01 00:12:41
  TRACK 12 AUDIO
    TITLE "0:"
    INDEX 01 00:17:36
  TRACK 13 AUDIO
    TITLE "3:cjc173_2890"
    INDEX 01 00:18:08
  TRACK 14 AUDIO
    TITLE "0:"
    INDEX 01 00:19:25
  TRACK 15 AUDIO
    TITLE "4:cjc173_2891"
    INDEX 01 00:19:47
  TRACK 16 AUDIO
    TITLE "0:"
    INDEX 01 00:21:61
  TRACK 17 AUDIO
    TITLE "5:cjc173_2892"
    INDEX 01 00:22:08
  TRACK 18 AUDIO
    TITLE "0:"
    INDEX 01 00:26:68
  TRACK 19 AUDIO
    TITLE "3:cjc173_2893"
    INDEX 01 00:27:40
  TRACK 20 AUDIO
    TITLE "0:"
    INDEX 01 00:28:61
  TRACK 21 AUDIO
    TITLE "4:cjc173_2894"
    INDEX 01 00:29:06
  TRACK 22 AUDIO
    TITLE "0:"
    INDEX 01 00:31:60
  TRACK 23 AUDIO
    TITLE "5:cjc173_2895"
    INDEX 01 00:32:06
  TRACK 24 AUDIO
    TITLE "0:"
    INDEX 01 00:37:13
  TRACK 25 AUDIO
    TITLE "3:cjc173_2896"
    INDEX 01 00:37:58
  TRACK 26 AUDIO
    TITLE "0:"
    INDEX 01 00:38:58
  TRACK 27 AUDIO
    TITLE "4:cjc173_2897"
    INDEX 01 00:39:04
  TRACK 28 AUDIO
    TITLE "0:"
    INDEX 01 00:41:15
  TRACK 29 AUDIO
    TITLE "5:cjc173_2898"
    INDEX 01 00:41:35
  TRACK 30 AUDIO
    TITLE "0:"
    INDEX 01 00:45:34
  TRACK 31 AUDIO
    TITLE "3:cjc173_2899"
    INDEX 01 00:46:06
  TRACK 32 AUDIO
    TITLE "0:"
    INDEX 01 00:47:35
  TRACK 33 AUDIO
    TITLE "4:cjc173_2900"
    INDEX 01 00:47:55
  TRACK 34 AUDIO
    TITLE "0:"
    INDEX 01 00:51:63
  TRACK 35 AUDIO
    TITLE "5:cjc173_2901"
    INDEX 01 00:52:07
  TRACK 36 AUDIO
    TITLE "0:"
    INDEX 01 00:56:09
  TRACK 37 AUDIO
    TITLE "3:cjc173_2902"
    INDEX 01 00:56:54
  TRACK 38 AUDIO
    TITLE "0:"
    INDEX 01 00:57:53
  TRACK 39 AUDIO
    TITLE "4:cjc173_2903"
    INDEX 01 00:58:00
  TRACK 40 AUDIO
    TITLE "0:"
    INDEX 01 00:59:74
  TRACK 41 AUDIO
    TITLE "5:cjc173_2904"
    INDEX 01 01:00:18
  TRACK 42 AUDIO
    TITLE "0:"
    INDEX 01 01:05:08
  TRACK 43 AUDIO
    TITLE "3:cjc173_2905"
    INDEX 01 01:05:53
  TRACK 44 AUDIO
    TITLE "0:"
    INDEX 01 01:06:58
  TRACK 45 AUDIO
    TITLE "4:cjc173_2906"
    INDEX 01 01:07:07
  TRACK 46 AUDIO
    TITLE "0:"
    INDEX 01 01:09:70
  TRACK 47 AUDIO
    TITLE "5:cjc173_2907"
    INDEX 01 01:10:17
  TRACK 48 AUDIO
    TITLE "0:"
    INDEX 01 01:14:50
  TRACK 49 AUDIO
    TITLE "3:cjc173_2908"
    INDEX 01 01:15:20
  TRACK 50 AUDIO
    TITLE "0:"
    INDEX 01 01:16:41
  TRACK 51 AUDIO
    TITLE "4:cjc173_2909"
    INDEX 01 01:16:62
  TRACK 52 AUDIO
    TITLE "0:"
    INDEX 01 01:20:70
  TRACK 53 AUDIO
    TITLE "5:cjc173_2910"
    INDEX 01 01:21:15
  TRACK 54 AUDIO
    TITLE "0:"
    INDEX 01 01:25:36
  TRACK 55 AUDIO
    TITLE "3:cjc173_2911"
    INDEX 01 01:26:06
  TRACK 56 AUDIO
    TITLE "0:"
    INDEX 01 01:27:25
  TRACK 57 AUDIO
    TITLE "4:cjc173_2912"
    INDEX 01 01:27:45
  TRACK 58 AUDIO
    TITLE "0:"
    INDEX 01 01:29:69
  TRACK 59 AUDIO
    TITLE "5:cjc173_2913"
    INDEX 01 01:30:14
  TRACK 60 AUDIO
    TITLE "0:"
    INDEX 01 01:35:40
